<svg width="8129" height="10166" viewBox="0 0 8129 10166" fill="none" xmlns="http://www.w3.org/2000/svg">
<path d="M7780.3 1083.61C4550.3 -1017.39 1067.3 467.114 274.298 1133.11C191.046 1203.03 152.832 1319.8 128.298 1530.61C-128.201 3734.61 -1.12762 5755.22 518.797 6943.61C1442.92 9055.9 2725.06 9625.75 3834.69 10078.8C3970.98 10134.5 4123.29 10138.8 4260.96 10086.6C5662.47 9555.59 6929.31 8698.38 7647.8 6834.11C8292.16 5162.18 8149.63 2727.45 8008.8 1534.61C8008.8 1234.61 7780.3 1083.61 7780.3 1083.61Z" fill="#1D2B12"/>
<path d="M7136.82 1611.27L7221.64 1487.56L7219.79 1486.29L7217.91 1485.08C4310.17 -383.415 1533.51 1007.61 838.421 1534.18C770.211 1585.85 731.152 1655.99 706.606 1729.77C682.841 1801.21 669.546 1885.72 659.185 1978.09C446.231 3876.45 551.067 5727.17 996.337 6783.05C1406.64 7756 1903.55 8382.37 2426.66 8808.69C2948.73 9234.18 3488.86 9453.59 3971.27 9622.81C4026.15 9642.07 4085.88 9641.48 4140.37 9621.18L4088 9480.62L4140.37 9621.18C5388.89 9155.99 6531.14 8311.51 7167.85 6597.57C7442.65 5857.83 7547.22 4957.98 7569.98 4121.72C7592.69 3287.66 7534.24 2505.98 7475.74 1989.23C7473.57 1826.08 7412.67 1702.07 7352.36 1619.65C7321.82 1577.91 7291.14 1546.35 7267.46 1524.74C7255.57 1513.89 7245.27 1505.39 7237.4 1499.23C7233.47 1496.15 7230.12 1493.64 7227.46 1491.7C7226.13 1490.72 7224.97 1489.89 7224 1489.2C7223.51 1488.86 7223.07 1488.55 7222.68 1488.28L7222.12 1487.89L7221.87 1487.72L7221.75 1487.64C7221.69 1487.6 7221.64 1487.56 7136.82 1611.27Z" stroke="#94918A" stroke-width="300" stroke-linecap="round"/>
<path d="M4231.06 7462H3944.27L3946.94 7666.5L4087.67 7894.5L4231.06 7652.5V7462Z" fill="#2B2A28"/>
<path fill-rule="evenodd" clip-rule="evenodd" d="M3891 7440H3949.57V7641.86L4089.25 7882.05L4228.43 7641.86V7440H4287V7664.97L4089.25 7993.69L3891 7664.97V7440ZM4070.8 7698L4089.25 7758.57L4107.2 7703.5V7583.5V7454.66H4089.25H4070.8V7580.5V7698Z" fill="#94918A"/>
<path d="M2579.67 4171.56L2649.44 4147.07L2538.97 3614.14C2552.54 3349.38 2803.35 3300.69 2916.89 3314.69C3030.43 3328.69 3021.55 3412.17 3041.9 3485.16L3268.16 4617H3319.52L3129.59 3412.17C3113 3314.69 3116.03 3269.2 3129.59 3251.7C3197.04 3076.12 3448.08 3062.56 3565.17 3077.72C3655 3089.36 3685.65 3163.71 3690.17 3210.2L3746 4203H3820.13L3797.73 3189.21C3795.02 3122.42 3835.04 3070.72 3855.39 3053.23C3982.53 2927.64 4172.5 2961 4260.44 3011.73C4348.38 3062.47 4379.79 3158.04 4378.66 3210.2L4335.49 4203H4413.5L4476.53 3241.7C4481.96 3180.51 4505.6 3137.21 4516.75 3123.22C4605.9 3025.63 4808.42 3082.56 4898.54 3123.22C5084.11 3188.21 5066.02 3329.19 5049.23 3397.18L4846.22 4608H4898.54L5150.49 3397.18C5220.26 3195.21 5681.03 3397.18 5620.47 3641.14L5533.25 4059.08H5620.47L5741.59 3641.14C5761.94 3474.29 5729.61 3265.2 5703.32 3177.21C5573.95 2744.27 5305.53 2498.42 5183.92 2400.82C4974.61 2232.85 4434.48 1854.6 3597.63 2075.37C2760.78 2296.14 2413 3052.73 2413 3503.16C2413 3571.15 2413 3644.64 2428.5 3703.63L2579.67 4171.56Z" fill="#94918A"/>
<path d="M2544 5669C2037.5 5210 1480.5 5627.21 1408 5693C1345.33 5749.86 1234 5884 1206.5 5884C1206.5 5884 1187 5884 1187 5833.5C1187 5783 1215.78 5301.45 1433.5 4911C1683.57 4462.55 2292 3913 2580.5 3813.5C2580.5 3813.5 2585.5 3963.24 2737.5 4256C2889.5 4548.76 3289 4544.5 3500 4518C3714 4491.2 3730.5 4197 3741.5 4155.5C3758.86 4090 3813.5 4038.5 3844.5 4067.5C3896.43 4116.08 4006.5 4164.5 4081 4164.5V4991C3875 4899.8 3596.83 4990.67 3483.5 5046C3370 5081 3195 5256 3113.5 5354.5L3013 5488C2863 5470.5 2713.5 5614 2669.5 5693.5C2618.03 5786.5 2544 5669 2544 5669Z" fill="#94918A"/>
<path d="M2506 3986C1930.5 4297 1493.07 4910.5 1305.5 5563C1289.83 5617.5 1253.5 5739 1364.5 5624.5C1475.5 5510 2031 5210.5 2453.5 5490.5C2499 5520.65 2540.9 5536.2 2530.5 5467C2527 5341.67 2536.9 5050.6 2658.5 4925C2612.5 5041.67 2551.5 5467 2598 5513.5C2644.5 5560 2835.5 5357.7 3113.5 5354.5C3186 5266.17 3370 5125.2 3492 5086C3605.33 5030.67 3875 4902.8 4081 4994V4260C4011 4260 3923 4233.5 3868 4174C3839.81 4143.5 3835 4234 3835 4234C3835 4310 3694.5 4597.5 3483.5 4624C3272.5 4650.5 2782.09 4642.5 2642 4354C2501.91 4065.5 2506 3986 2506 3986Z" fill="#201B21"/>
<path d="M5618 5668.5C6124.5 5209.5 6681.5 5626.71 6754 5692.5C6816.67 5749.36 6928 5883.5 6955.5 5883.5C6955.5 5883.5 6975 5883.5 6975 5833C6975 5782.5 6946.22 5300.95 6728.5 4910.5C6478.43 4462.05 5873 3912.5 5584.5 3813C5584.5 3813 5576.5 3962.74 5424.5 4255.5C5272.5 4548.26 4873 4544 4662 4517.5C4448 4490.7 4431.5 4196.5 4420.5 4155C4406.5 4090 4348.5 4038 4317.5 4067C4265.57 4115.58 4167 4164.5 4081 4164.5V4990.5C4287 4899.3 4565.17 4990.17 4678.5 5045.5C4792 5080.5 4967 5255.5 5048.5 5354L5153 5487.5C5303 5470 5448.5 5613.5 5492.5 5693C5543.97 5786 5618 5668.5 5618 5668.5Z" fill="#94918A"/>
<path d="M5656 3985.5C6231.5 4296.5 6668.93 4910 6856.5 5562.5C6872.17 5617 6908.5 5738.5 6797.5 5624C6686.5 5509.5 6131 5210 5708.5 5490C5663 5520.15 5621.1 5535.7 5631.5 5466.5C5635 5341.17 5625.1 5050.1 5503.5 4924.5C5549.5 5041.17 5610.5 5466.5 5564 5513C5517.5 5559.5 5326.5 5357.2 5048.5 5354C4976 5265.67 4790 5096.2 4668 5057C4554.67 5001.67 4287 4902.3 4081 4993.5V4260C4151 4260 4239 4233 4294 4173.5C4322.19 4143 4327 4233.5 4327 4233.5C4327 4309.5 4467.5 4597 4678.5 4623.5C4889.5 4650 5379.91 4642 5520 4353.5C5660.09 4065 5656 3985.5 5656 3985.5Z" fill="#201B21"/>
<path d="M3446 4942.29C3435.96 4867.56 3481.52 4808.68 3510.52 4798.12C3540.99 4776.23 3656 4745.66 3869.5 4833C3935.5 4860 4043.29 4855.19 4087 4857V4942.29V5082.5C4056.34 5082.5 4001.5 5067.5 3942.6 5047.96C3829.65 5010.49 3710 4965.5 3510.52 5047.96C3446 5022.5 3451.58 4983.8 3446 4942.29Z" fill="#94918A"/>
<path d="M4728 4941.71C4738.04 4866.98 4692.48 4808.1 4663.48 4797.54C4633.01 4775.65 4518 4745.08 4304.5 4832.42C4238.5 4859.42 4130.71 4854.61 4087 4856.42V4941.71V5081.92C4117.66 5081.92 4172.5 5066.92 4231.4 5047.38C4344.35 5009.91 4464 4964.92 4663.48 5047.38C4728 5021.92 4722.42 4983.22 4728 4941.71Z" fill="#94918A"/>
<path d="M3950 4533.46V4858H4229V4533.46C4229 4357.66 3950 4372.19 3950 4533.46Z" fill="#94918A"/>
<mask id="mask0_25_46" style="mask-type:alpha" maskUnits="userSpaceOnUse" x="3950" y="4399" width="279" height="451">
<path d="M3950 4525.46V4850H4229V4525.46C4229 4349.66 3950 4364.19 3950 4525.46Z" fill="white"/>
</mask>
<g mask="url(#mask0_25_46)">
<path d="M3929 4592.5L4168 4408M3929 4676L4213 4442M3929 4752L4255.5 4492.5M3929 4831.5L4255.5 4572.5M3938.5 4905.5L4265 4649M4019.5 4919.5L4265 4728" stroke="#201B21" stroke-width="20" stroke-linecap="round"/>
<path d="M3849 4584.5L4094.5 4393" stroke="#201B21" stroke-width="20" stroke-linecap="round"/>
<path d="M4128 4906.5L4367 4722" stroke="#201B21" stroke-width="20" stroke-linecap="round"/>
</g>
<circle cx="4081" cy="6182" r="1294" fill="#94918A"/>
<path d="M3473.6 4940.77C3463.85 4883.54 3500.69 4834.97 3528.86 4826.88C3558.48 4810.11 3659.75 4795.54 3827.91 4871.39C3881.18 4892.79 4006.47 4935.92 4048.95 4937.3L4089.04 4937.86V5083C4059.24 5083 3999.65 5055.56 3948.72 5018.25C3864.03 4956.19 3688.68 4875.44 3544.03 4972.57C3525.43 4977.97 3486.6 4994.54 3473.6 4940.77Z" fill="#201B21"/>
<path d="M4704.47 4941.33C4714.22 4884.09 4677.38 4835.53 4649.21 4827.43C4619.6 4810.67 4518.32 4796.1 4350.16 4871.95C4296.89 4893.34 4171.6 4936.48 4129.13 4937.86H4089.04V5083C4118.83 5083 4178.43 5056.12 4229.35 5018.81C4314.04 4956.75 4489.39 4876 4634.04 4973.13C4652.64 4978.53 4691.47 4995.1 4704.47 4941.33Z" fill="#201B21"/>
<circle cx="3596" cy="4888" r="30" fill="#94918A"/>
<circle cx="4584" cy="4888" r="30" fill="#94918A"/>
<ellipse cx="2335.5" cy="794.313" rx="77.5" ry="80.3131" fill="#1D2B12"/>
<ellipse cx="4063.5" cy="521.313" rx="77.5" ry="80.3131" fill="#1D2B12"/>
<ellipse cx="5861.5" cy="794.313" rx="77.5" ry="80.3131" fill="#1D2B12"/>
<ellipse cx="758.5" cy="1621.31" rx="77.5" ry="80.3131" fill="#1D2B12"/>
<ellipse cx="555.5" cy="4136.31" rx="77.5" ry="80.3131" fill="#1D2B12"/>
<ellipse cx="1416.5" cy="7605.31" rx="77.5" ry="80.3131" fill="#1D2B12"/>
<ellipse cx="4063.5" cy="9612.31" rx="77.5" ry="80.3131" fill="#1D2B12"/>
<ellipse cx="6666.5" cy="7605.31" rx="77.5" ry="80.3131" fill="#1D2B12"/>
<ellipse cx="7583.5" cy="4136.31" rx="77.5" ry="80.3131" fill="#1D2B12"/>
<ellipse cx="7347.5" cy="1621.31" rx="77.5" ry="80.3131" fill="#1D2B12"/>
<path d="M1370.27 3796.13L1493.48 3815.74L1485.59 3877.14L1413.47 3867.87L1410.71 3889.33L1359.15 3882.71L1370.27 3796.13ZM1384.07 4096.77L1078.87 4057.57L1086.83 3995.58L1340.17 4028.12L1356.48 3901.15L1103.14 3868.61L1111.2 3805.87L1416.4 3845.07L1384.07 4096.77Z" fill="#94918A"/>
<path d="M1430.95 3770.1L1131.85 3697.84L1180.54 3496.3L1232.68 3508.89L1199.26 3647.2L1270.53 3664.42L1301.44 3536.48L1353.58 3549.08L1322.67 3677.01L1394.09 3694.27L1427.64 3555.38L1479.78 3567.98L1430.95 3770.1Z" fill="#94918A"/>
<path d="M1492.64 3520.26L1202.92 3416.62L1224.83 3355.37L1344.37 3398.13L1388.85 3273.78L1269.31 3231.02L1291.18 3169.9L1580.9 3273.54L1559.04 3334.66L1439.36 3291.85L1394.87 3416.2L1514.56 3459.01L1492.64 3520.26Z" fill="#94918A"/>
<path d="M1368.75 3124.61L1320.54 3101.09L1431.4 2873.98L1479.6 2897.51L1438.28 2982.17L1666.6 3093.62L1638.39 3151.41L1410.07 3039.96L1368.75 3124.61Z" fill="#94918A"/>
<path d="M1727.58 2975.38L1466.36 2812.75L1530.52 2709.69C1542.86 2689.88 1557.15 2675.35 1573.4 2666.12C1589.56 2656.83 1606.6 2652.69 1624.5 2653.69C1642.37 2654.55 1659.98 2660.38 1677.32 2671.18C1694.67 2681.98 1707.65 2695.25 1716.25 2710.99C1724.86 2726.73 1728.44 2744 1727 2762.81C1725.61 2781.53 1718.67 2800.93 1706.17 2820.99L1665.28 2886.68L1621.02 2859.13L1656.36 2802.37C1662.97 2791.74 1666.6 2781.84 1667.23 2772.68C1667.83 2763.38 1665.91 2754.99 1661.48 2747.51C1657.02 2739.89 1650.5 2733.41 1641.91 2728.06C1633.23 2722.67 1624.58 2719.7 1615.95 2719.16C1607.28 2718.48 1599 2720.52 1591.08 2725.27C1583.09 2729.97 1575.75 2737.67 1569.08 2748.39L1545.89 2785.63L1761.96 2920.15L1727.58 2975.38Z" fill="#94918A"/>
<path d="M1960.96 2322.45L1918.26 2372.52C1911 2367.91 1903.65 2364.87 1896.22 2363.4C1888.71 2361.86 1881.27 2361.78 1873.92 2363.14C1866.57 2364.51 1859.47 2367.27 1852.63 2371.44C1845.85 2375.53 1839.6 2380.93 1833.88 2387.64C1823.54 2399.75 1817.55 2412.88 1815.9 2427.01C1814.17 2441.07 1816.92 2455.45 1824.12 2470.15C1831.25 2484.79 1842.93 2499.03 1859.17 2512.88C1875.86 2527.11 1891.99 2536.6 1907.57 2541.33C1923.22 2545.98 1937.77 2546.29 1951.23 2542.23C1964.69 2538.18 1976.46 2530.25 1986.54 2518.43C1992.19 2511.8 1996.55 2504.92 1999.61 2497.79C2002.73 2490.58 2004.5 2483.33 2004.91 2476.05C2005.26 2468.71 2004.22 2461.5 2001.81 2454.45C1999.47 2447.32 1995.66 2440.51 1990.39 2434.04L2033.32 2384.17C2042.96 2394.63 2050.57 2406.71 2056.13 2420.4C2061.68 2433.96 2064.68 2448.43 2065.12 2463.81C2065.55 2479.05 2062.94 2494.61 2057.31 2510.47C2051.67 2526.19 2042.44 2541.56 2029.64 2556.58C2011.83 2577.46 1991.18 2592.1 1967.69 2600.5C1944.26 2608.83 1919.53 2610.11 1893.5 2604.37C1867.53 2598.54 1841.82 2584.77 1816.36 2563.06C1790.83 2541.29 1773.21 2517.96 1763.49 2493.09C1753.77 2468.21 1751.24 2443.54 1755.91 2419.09C1760.5 2394.56 1771.57 2372.02 1789.12 2351.44C1800.69 2337.87 1813.32 2326.92 1827.01 2318.59C1840.77 2310.18 1855.14 2304.6 1870.12 2301.84C1885.03 2299.03 1900.15 2299.28 1915.48 2302.61C1930.87 2305.87 1946.03 2312.48 1960.96 2322.45Z" fill="#94918A"/>
<path d="M2125.89 2018.21L2334.98 2243.96L2287.81 2287.66L2114.65 2100.71L2023.38 2185.25L2196.54 2372.19L2149.36 2415.89L1940.26 2190.15L2125.89 2018.21Z" fill="#94918A"/>
<path d="M2379 2209.25L2195.22 1962.46L2361.51 1838.62L2393.55 1881.64L2279.43 1966.62L2323.22 2025.42L2428.78 1946.81L2460.82 1989.83L2355.26 2068.44L2399.14 2127.37L2513.74 2042.03L2545.78 2085.05L2379 2209.25Z" fill="#94918A"/>
<path d="M2815.19 1861.43L2875.07 1970.88L2821.69 2002.22L2784.88 1939.5L2766.22 1950.45L2739.9 1905.62L2815.19 1861.43ZM2585.85 2056.33L2430.09 1790.96L2483.99 1759.32L2613.29 1979.59L2723.68 1914.79L2594.39 1694.52L2648.94 1662.5L2804.7 1927.86L2585.85 2056.33Z" fill="#94918A"/>
<path d="M2748.94 1610.55L2808.44 1584.61L2885.79 1762L2888.13 1760.98L2932.67 1530.45L2984.87 1507.69L3107.85 1789.75L3048.21 1815.75L2970.81 1638.22L2968.74 1639.12L2923.57 1870.1L2871.93 1892.61L2748.94 1610.55Z" fill="#94918A"/>
<path d="M3211.12 1754.92L3144.43 1775.26L3156.29 1449.95L3236.48 1425.5L3427.69 1688.88L3361.01 1709.22L3218.04 1504.63L3215.75 1505.33L3211.12 1754.92ZM3171.67 1640.5L3329.18 1592.48L3343.99 1641.05L3186.48 1689.08L3171.67 1640.5Z" fill="#94918A"/>
<path d="M3437.12 1687.13L3427.65 1635.71L3436.09 1633.4C3446.96 1630.48 3455.1 1624.65 3460.52 1615.91C3465.92 1607.08 3468.78 1594.08 3469.08 1576.91C3469.46 1559.63 3467.56 1536.86 3463.38 1508.6L3443.63 1373.06L3649.02 1335.26L3704.72 1637.88L3642.51 1649.33L3596.25 1397.98L3512.47 1413.4L3527.13 1519.63C3531.79 1553.81 3532.85 1582.23 3530.3 1604.9C3527.85 1627.56 3520.52 1645.3 3508.32 1658.14C3496.22 1670.96 3478 1679.61 3453.67 1684.09L3437.12 1687.13Z" fill="#94918A"/>
<path d="M3784.47 1435.55L3857.6 1430.25C3881.98 1428.48 3903.25 1430.91 3921.4 1437.52C3939.65 1444.04 3954.08 1454.09 3964.71 1467.68C3975.34 1481.27 3981.3 1497.76 3982.61 1517.15C3984.1 1536.42 3980.59 1553.8 3972.07 1569.28C3963.55 1584.66 3950.74 1597.14 3933.66 1606.71C3916.68 1616.28 3896 1621.94 3871.62 1623.71L3756.99 1632.02L3734.74 1325.12L3799.48 1320.42L3817.94 1575.18L3867.85 1571.56C3879.53 1570.71 3889.22 1567.9 3896.91 1563.13C3904.59 1558.25 3910.23 1552.17 3913.82 1544.88C3917.5 1537.48 3918.98 1529.59 3918.28 1521.21C3917.49 1509.01 3912.15 1499.05 3902.25 1491.33C3892.45 1483.51 3878.8 1480.23 3861.32 1481.5L3788.19 1486.8L3784.47 1435.55Z" fill="#94918A"/>
<path d="M4037.58 1613.73L4049.51 1306.25L4114.51 1308.77L4109.59 1435.64L4241.56 1440.75L4246.48 1313.89L4311.34 1316.41L4299.42 1623.88L4234.56 1621.37L4239.48 1494.35L4107.52 1489.24L4102.59 1616.25L4037.58 1613.73Z" fill="#94918A"/>
<path d="M4654.78 1521.21C4649.5 1554.35 4638.73 1581.54 4622.46 1602.78C4606.29 1624.04 4586.45 1639.08 4562.93 1647.91C4539.53 1656.66 4514.42 1658.9 4487.62 1654.62C4460.61 1650.32 4437.36 1640.33 4417.85 1624.64C4398.34 1608.95 4384.2 1588.49 4375.44 1563.26C4366.68 1538.03 4364.94 1508.9 4370.2 1475.86C4375.48 1442.72 4386.21 1415.52 4402.37 1394.26C4418.54 1373 4438.33 1358 4461.73 1349.26C4485.15 1340.41 4510.36 1338.14 4537.37 1342.44C4564.17 1346.71 4587.33 1356.69 4606.84 1372.38C4626.47 1387.98 4640.66 1408.4 4649.42 1433.63C4658.28 1458.88 4660.06 1488.07 4654.78 1521.21ZM4589.65 1510.83C4593.07 1489.36 4592.74 1470.75 4588.66 1454.99C4584.67 1439.24 4577.5 1426.63 4567.14 1417.17C4556.78 1407.71 4543.84 1401.75 4528.31 1399.27C4512.78 1396.8 4498.62 1398.44 4485.84 1404.22C4473.05 1409.99 4462.27 1419.73 4453.49 1433.45C4444.81 1447.18 4438.76 1464.77 4435.34 1486.24C4431.92 1507.7 4432.2 1526.31 4436.18 1542.06C4440.26 1557.82 4447.48 1570.43 4457.84 1579.89C4468.2 1589.35 4481.14 1595.32 4496.67 1597.8C4512.2 1600.27 4526.36 1598.62 4539.15 1592.85C4551.94 1587.08 4562.67 1577.33 4571.35 1563.6C4580.13 1549.88 4586.23 1532.29 4589.65 1510.83Z" fill="#94918A"/>
<path d="M4757.59 1387.58L4820.02 1405.33L4767.07 1591.47L4769.53 1592.17L4950.37 1442.41L5005.14 1457.99L4920.95 1753.96L4858.38 1736.16L4911.37 1549.88L4909.2 1549.26L4727.59 1698.96L4673.4 1683.54L4757.59 1387.58ZM4932.23 1353.52L4975.15 1365.73C4970.06 1383.24 4959.55 1395.5 4943.59 1402.53C4927.74 1409.58 4908.88 1409.99 4887.01 1403.77C4865.04 1397.52 4849.17 1387.23 4839.4 1372.89C4829.63 1358.55 4827.24 1342.61 4832.22 1325.08L4874.86 1337.21C4872.87 1343.83 4873.29 1350.4 4876.12 1356.93C4879.04 1363.49 4885.75 1368.27 4896.26 1371.25C4906.47 1374.16 4914.53 1373.64 4920.44 1369.7C4926.35 1365.76 4930.28 1360.37 4932.23 1353.52Z" fill="#94918A"/>
<path d="M5441.5 1641.69L5311.93 1920.79L5253.61 1893.72L5360.9 1662.59L5248.06 1610.21L5140.77 1841.33L5082.44 1814.26L5212.01 1535.16L5441.5 1641.69Z" fill="#94918A"/>
<path d="M5682.39 1964.76C5664.72 1993.29 5644.28 2014.21 5621.08 2027.53C5597.95 2040.9 5573.84 2047.11 5548.74 2046.18C5523.77 2045.21 5499.75 2037.58 5476.67 2023.29C5453.42 2008.89 5435.83 1990.69 5423.89 1968.69C5411.95 1946.69 5406.81 1922.36 5408.47 1895.7C5410.13 1869.04 5419.77 1841.49 5437.38 1813.05C5455.05 1784.52 5475.44 1763.57 5498.56 1750.2C5521.69 1736.84 5545.73 1730.64 5570.7 1731.6C5595.71 1732.49 5619.85 1740.13 5643.1 1754.52C5666.17 1768.81 5683.68 1786.96 5695.62 1808.96C5707.7 1830.93 5712.91 1855.25 5711.25 1881.9C5709.67 1908.61 5700.05 1936.23 5682.39 1964.76ZM5626.31 1930.04C5637.75 1911.56 5644.63 1894.26 5646.96 1878.14C5649.36 1862.08 5647.61 1847.68 5641.71 1834.96C5635.81 1822.23 5626.17 1811.73 5612.8 1803.45C5599.43 1795.17 5585.73 1791.22 5571.71 1791.61C5557.69 1792 5543.98 1796.82 5530.58 1806.08C5517.28 1815.4 5504.9 1829.29 5493.46 1847.77C5482.02 1866.25 5475.09 1883.53 5472.68 1899.59C5470.36 1915.71 5472.15 1930.13 5478.06 1942.85C5483.96 1955.58 5493.6 1966.08 5506.97 1974.36C5520.34 1982.64 5534.03 1986.59 5548.06 1986.2C5562.08 1985.81 5575.75 1980.96 5589.05 1971.65C5602.45 1962.39 5614.87 1948.52 5626.31 1930.04Z" fill="#94918A"/>
<path d="M5577.54 2168.78L5656.43 2070.46L5672.72 2083.53C5681.46 2084 5691.06 2082.45 5701.49 2078.88C5712 2075.24 5724.06 2068.28 5737.68 2058.03C5751.37 2047.69 5767.32 2032.62 5785.52 2012.81L5873.75 1916.78L6032.54 2044.19L5872.41 2243.76L5898.65 2264.82L5819.95 2362.91L5771.2 2323.79L5817.47 2266.13L5672.74 2150.01L5626.29 2207.9L5577.54 2168.78ZM5731.31 2130.55L5823.66 2204.64L5950.22 2046.91L5885.88 1995.29L5834.27 2051.93C5820.53 2066.97 5807.57 2079.68 5795.38 2090.07C5783.28 2100.52 5771.88 2109.03 5761.21 2115.62C5750.67 2122.19 5740.7 2127.17 5731.31 2130.55Z" fill="#94918A"/>
<path d="M6251.55 2256.51L6213.72 2294.54L6115.09 2196.41L5935.9 2376.52L5889.78 2330.64L6106.8 2112.5L6251.55 2256.51Z" fill="#94918A"/>
<path d="M6360.44 2626.38C6334.38 2647.52 6308.2 2660.56 6281.91 2665.51C6255.68 2670.53 6230.86 2668.48 6207.46 2659.35C6184.2 2650.23 6164.02 2635.12 6146.92 2614.04C6129.69 2592.8 6119.06 2569.83 6115.01 2545.13C6110.97 2520.42 6114.11 2495.76 6124.44 2471.13C6134.77 2446.5 6152.93 2423.64 6178.91 2402.57C6204.97 2381.43 6231.12 2368.35 6257.35 2363.33C6283.58 2358.3 6308.33 2360.35 6331.59 2369.47C6354.93 2378.52 6375.21 2393.67 6392.43 2414.91C6409.53 2435.99 6420.1 2458.88 6424.15 2483.59C6428.34 2508.31 6425.26 2532.98 6414.93 2557.61C6404.67 2582.32 6386.5 2605.24 6360.44 2626.38ZM6318.89 2575.15C6335.77 2561.46 6347.96 2547.39 6355.45 2532.93C6363 2518.55 6366.08 2504.38 6364.69 2490.42C6363.3 2476.46 6357.65 2463.37 6347.74 2451.16C6337.83 2438.94 6326.2 2430.72 6312.82 2426.47C6299.45 2422.23 6284.92 2422.28 6269.23 2426.63C6253.6 2431.05 6237.34 2440.11 6220.46 2453.8C6203.58 2467.49 6191.36 2481.53 6183.81 2495.91C6176.32 2510.36 6173.27 2524.57 6174.66 2538.53C6176.05 2552.49 6181.7 2565.58 6191.61 2577.79C6201.52 2590.01 6213.16 2598.24 6226.53 2602.48C6239.9 2606.72 6254.4 2606.63 6270.03 2602.21C6285.72 2597.86 6302.01 2588.85 6318.89 2575.15Z" fill="#94918A"/>
<path d="M6473.2 2613.64L6518.4 2584.76L6654.47 2797.71L6609.27 2826.6L6558.55 2747.21L6344.46 2884.01L6309.83 2829.83L6523.92 2693.02L6473.2 2613.64Z" fill="#94918A"/>
<path d="M6677.09 3182.84C6646.95 3197.61 6618.52 3204.46 6591.79 3203.4C6565.1 3202.43 6541.37 3194.87 6520.61 3180.73C6499.98 3166.63 6483.69 3147.4 6471.74 3123.02C6459.71 3098.47 6454.49 3073.7 6456.07 3048.72C6457.66 3023.73 6466.24 3000.4 6481.83 2978.7C6497.41 2957.01 6520.22 2938.8 6550.26 2924.08C6580.39 2909.31 6608.8 2902.41 6635.49 2903.39C6662.18 2904.36 6685.84 2911.9 6706.47 2925.99C6727.19 2940.04 6743.57 2959.35 6755.6 2983.9C6767.55 3008.27 6772.73 3032.95 6771.14 3057.94C6769.69 3082.97 6761.17 3106.33 6745.59 3128.02C6730.05 3149.8 6707.22 3168.08 6677.09 3182.84ZM6648.06 3123.62C6667.57 3114.05 6682.6 3103.06 6693.14 3090.65C6703.72 3078.32 6709.89 3065.2 6711.66 3051.28C6713.43 3037.37 6710.85 3023.35 6703.93 3009.23C6697.01 2995.1 6687.51 2984.48 6675.42 2977.35C6663.34 2970.22 6649.17 2967.02 6632.9 2967.74C6616.68 2968.55 6598.81 2973.74 6579.29 2983.31C6559.77 2992.87 6544.72 3003.82 6534.14 3016.14C6523.61 3028.56 6517.45 3041.72 6515.69 3055.64C6513.92 3069.56 6516.49 3083.58 6523.42 3097.7C6530.34 3111.82 6539.84 3122.44 6551.92 3129.57C6564 3136.7 6578.16 3139.86 6594.38 3139.05C6610.65 3138.33 6628.54 3133.18 6648.06 3123.62Z" fill="#94918A"/>
<path d="M6554.46 3292.14L6844.22 3188.6L6885.68 3304.62C6893.3 3325.94 6896.49 3344.85 6895.26 3361.35C6894.03 3377.85 6889.08 3391.69 6880.42 3402.87C6871.85 3414.02 6860.31 3422.18 6845.78 3427.37C6834.46 3431.42 6823.7 3432.71 6813.5 3431.25C6803.39 3429.76 6794.19 3426.02 6785.89 3420.06C6777.71 3414.15 6770.69 3406.55 6764.82 3397.27L6761.99 3398.28C6765.46 3409.48 6766.04 3420.93 6763.72 3432.6C6761.44 3444.37 6756.19 3455.13 6747.97 3464.88C6739.85 3474.59 6728.67 3481.99 6714.42 3487.08C6699.05 3492.57 6683.96 3493.65 6669.16 3490.33C6654.48 3487.06 6641.01 3479.27 6628.74 3466.96C6616.46 3454.64 6606.45 3437.64 6598.7 3415.94L6554.46 3292.14ZM6626.44 3335.51L6644.29 3385.45C6650.39 3402.53 6658.09 3413.81 6667.4 3419.32C6676.8 3424.79 6686.97 3425.57 6697.91 3421.66C6705.93 3418.79 6712.31 3414.33 6717.06 3408.27C6721.81 3402.22 6724.65 3394.98 6725.57 3386.56C6726.54 3378.24 6725.27 3369.18 6721.76 3359.37L6703.41 3308.01L6626.44 3335.51ZM6744.86 3293.19L6761.09 3338.61C6764.09 3347.01 6768.22 3353.93 6773.47 3359.4C6778.84 3364.92 6784.94 3368.59 6791.76 3370.41C6798.61 3372.32 6805.86 3371.92 6813.5 3369.18C6823.97 3365.44 6831.08 3358.7 6834.83 3348.96C6838.62 3339.31 6838.08 3327.69 6833.23 3314.11L6816.6 3267.56L6744.86 3293.19Z" fill="#94918A"/>
<path d="M6689.36 3735.45L6793.62 3608.53L6788.39 3586.91L6660.9 3617.74L6645.61 3554.51L6944.7 3482.19L6959.99 3545.42L6840.53 3574.31L6843.6 3587.01L6987.07 3657.43L7006.1 3736.15L6839.15 3653.01L6708.33 3813.87L6689.36 3735.45Z" fill="#94918A"/>
<path d="M7017.06 3799.69L7025.13 3864.09L6833.12 3888.16L6833.44 3890.7L7041.99 3998.56L7049.08 4055.06L6743.76 4093.34L6735.67 4028.79L6927.83 4004.7L6927.55 4002.46L6718.75 3893.87L6711.74 3837.97L7017.06 3799.69Z" fill="#94918A"/>
<path fill-rule="evenodd" clip-rule="evenodd" d="M3505 6660H3598.5L3977 5562H4197L4588 6660H4706V6725H4209.5V6660H4318H4339L4266 6444.5H3871L3791 6660H3920V6725H3505V6660ZM4232.5 6345.5L4062.5 5813L3889.5 6345.5H4232.5Z" fill="#2B2A28"/>
<path d="M4068.68 5506H3950V5055.22C3950 5055.22 3993 5085.5 4037 5105C4081 5124.5 4107 5119 4143 5104.5C4179 5090 4229 5055 4229 5055V5506H4108.53V5328.5C4108.53 5261.5 4068.68 5260 4068.68 5328.5V5506Z" fill="#2A2A28"/>
<path d="M4460.27 5124.36C4495.29 5181.51 4590.37 5294.6 4690.04 5269.14C4699.98 5196.63 4561.92 5092.94 4460.27 5124.36Z" fill="#2C2B27"/>
<path d="M4569.1 5343.51C4618.68 5375.9 4737.36 5430.29 4807.23 5372.42C4787.69 5310.83 4638.29 5280.14 4569.1 5343.51Z" fill="#2C2B27"/>
<path d="M4738.48 5142.62C4778.87 5185.9 4852.65 5293.39 4807.27 5371.85C4743.11 5363.05 4687.55 5221.34 4738.48 5142.62Z" fill="#2C2B27"/>
<path d="M4692.47 5485.21C4746.52 5529.16 4878.73 5607.27 4967.57 5548.07C4952.26 5473.62 4781.19 5419.5 4692.47 5485.21Z" fill="#2C2B27"/>
<path d="M4915.23 5270.35C4957.19 5325.9 5030.35 5460.68 4967.64 5546.96C4893.64 5528.84 4845.99 5356.25 4915.23 5270.35Z" fill="#2C2B27"/>
<path d="M4865.09 6557.95C4822.53 6631.12 4753.84 6804.49 4842.16 6899.57C4928.88 6866.95 4961.23 6651.63 4865.09 6557.95Z" fill="#2C2B27"/>
<path d="M5164.36 6783.45C5105.51 6844.36 4957.26 6957.87 4841.33 6899.28C4848.96 6807.15 5047.64 6716.97 5164.36 6783.45Z" fill="#2C2B27"/>
<path d="M4755.04 6723.61C4694.87 6783.23 4583.34 6932.8 4643.83 7047.53C4736.06 7038.52 4823.45 6839.01 4755.04 6723.61Z" fill="#2C2B27"/>
<path d="M4987 7019.69C4914.29 7063.24 4741.55 7134.38 4644.89 7047.74C4676.28 6960.76 4891.63 6925.22 4987 7019.69Z" fill="#2C2B27"/>
<path d="M4975.01 6133.77C4973.31 6214.54 4996.15 6391.11 5113.99 6429.92C5171.38 6362.71 5098.75 6167.81 4975.01 6133.77Z" fill="#2C2B27"/>
<path d="M5331.07 6184.61C5310.07 6262.63 5238.69 6425.8 5114.66 6430.22C5078.39 6349.69 5202.73 6182.8 5331.07 6184.61Z" fill="#2C2B27"/>
<path d="M4947.99 6346.65C4922.29 6427.78 4892.94 6612.99 5000.54 6687.03C5078.49 6636.05 5062.95 6417.6 4947.99 6346.65Z" fill="#2C2B27"/>
<path d="M5292.08 6504.01C5247.69 6576.67 5127.09 6720.5 5000.42 6688.33C4987.67 6596.22 5162.89 6464.27 5292.08 6504.01Z" fill="#2C2B27"/>
<path d="M4965.22 5930.76C4981.16 6007.21 5041.02 6168.6 5160.46 6179.69C5199.92 6103.98 5089.17 5936.08 4965.22 5930.76Z" fill="#2C2B27"/>
<path d="M5312.22 5901.77C5309.39 5979.8 5277.58 6148.93 5161.71 6179.89C5110.05 6111.87 5190.93 5927.8 5312.22 5901.77Z" fill="#2C2B27"/>
<path d="M4934.93 5783.41C4963.35 5844.07 5045.22 5966.96 5147.09 5952.71C5165.04 5881.77 5039.41 5763.46 4934.93 5783.41Z" fill="#2C2B27"/>
<path d="M5219.24 5689.62C5232.31 5755.3 5239.22 5902.69 5148.66 5951.33C5092.1 5904.74 5123.17 5735.21 5219.24 5689.62Z" fill="#2C2B27"/>
<path d="M4833.79 5625.96C4877.5 5681.46 4990.99 5788.11 5092.15 5749.21C5093.58 5672.1 4936.28 5580.58 4833.79 5625.96Z" fill="#2C2B27"/>
<path d="M5104.05 5462.27C5133.2 5526.57 5175.6 5676.24 5094.28 5747.76C5025.05 5713.4 5016.35 5531.96 5104.05 5462.27Z" fill="#2C2B27"/>
<path d="M4588.85 6859.93C4518.06 6911.81 4380.61 7048.18 4423.96 7175.79C4519.36 7181.06 4640.16 6989.48 4588.85 6859.93Z" fill="#2C2B27"/>
<path d="M4778.35 7202.55C4697.34 7235.92 4510.02 7281.91 4425.34 7177.5C4471.17 7092.93 4696.23 7090.3 4778.35 7202.55Z" fill="#2C2B27"/>
<path d="M4346.9 6928.81C4271.06 6979.32 4125.53 7116.76 4179.59 7261.9C4285.39 7276.89 4409.86 7076.87 4346.9 6928.81Z" fill="#2C2B27"/>
<path d="M4534.39 7342.34C4449.13 7368.32 4254.79 7392.17 4178.19 7257.29C4232.32 7166.16 4461.09 7198.73 4534.39 7342.34Z" fill="#2C2B27"/>
<path d="M3713.68 5124.36C3678.67 5181.51 3583.59 5294.6 3483.92 5269.14C3473.97 5196.63 3612.04 5092.94 3713.68 5124.36Z" fill="#2C2B27"/>
<path d="M3604.86 5343.51C3555.28 5375.9 3436.6 5430.29 3366.73 5372.42C3386.26 5310.83 3535.67 5280.14 3604.86 5343.51Z" fill="#2C2B27"/>
<path d="M3435.47 5142.62C3395.09 5185.9 3321.31 5293.39 3366.69 5371.85C3430.85 5363.05 3486.4 5221.34 3435.47 5142.62Z" fill="#2C2B27"/>
<path d="M3481.48 5485.21C3427.44 5529.16 3295.23 5607.27 3206.38 5548.07C3221.69 5473.62 3392.76 5419.5 3481.48 5485.21Z" fill="#2C2B27"/>
<path d="M3258.72 5270.35C3216.77 5325.9 3143.6 5460.68 3206.32 5546.96C3280.32 5528.84 3327.96 5356.25 3258.72 5270.35Z" fill="#2C2B27"/>
<path d="M3308.87 6557.95C3351.42 6631.12 3420.11 6804.49 3331.79 6899.57C3245.08 6866.95 3212.73 6651.63 3308.87 6557.95Z" fill="#2C2B27"/>
<path d="M3009.6 6783.45C3068.45 6844.36 3216.7 6957.87 3332.62 6899.28C3325 6807.15 3126.32 6716.97 3009.6 6783.45Z" fill="#2C2B27"/>
<path d="M3418.92 6723.61C3479.08 6783.22 3590.61 6932.8 3530.13 7047.53C3437.89 7038.52 3350.51 6839.01 3418.92 6723.61Z" fill="#2C2B27"/>
<path d="M3186.96 7019.69C3259.66 7063.24 3432.41 7134.38 3529.06 7047.74C3497.68 6960.76 3282.33 6925.22 3186.96 7019.69Z" fill="#2C2B27"/>
<path d="M3198.94 6133.77C3200.64 6214.54 3177.81 6391.11 3059.96 6429.92C3002.58 6362.71 3075.21 6167.81 3198.94 6133.77Z" fill="#2C2B27"/>
<path d="M2842.89 6184.61C2863.88 6262.63 2935.27 6425.8 3059.3 6430.21C3095.57 6349.69 2971.23 6182.8 2842.89 6184.61Z" fill="#2C2B27"/>
<path d="M3225.97 6346.65C3251.67 6427.78 3281.01 6612.99 3173.42 6687.03C3095.46 6636.05 3111.01 6417.6 3225.97 6346.65Z" fill="#2C2B27"/>
<path d="M2881.88 6504.01C2926.27 6576.67 3046.87 6720.5 3173.54 6688.33C3186.29 6596.22 3011.06 6464.26 2881.88 6504.01Z" fill="#2C2B27"/>
<path d="M3208.7 5930.75C3192.76 6007.21 3132.9 6168.59 3013.46 6179.69C2974 6103.98 3084.75 5936.08 3208.7 5930.75Z" fill="#2C2B27"/>
<path d="M2861.7 5901.76C2864.53 5979.8 2896.34 6148.93 3012.21 6179.89C3063.87 6111.87 2982.99 5927.79 2861.7 5901.76Z" fill="#2C2B27"/>
<path d="M3238.99 5783.41C3210.57 5844.06 3128.7 5966.96 3026.83 5952.71C3008.88 5881.76 3134.51 5763.45 3238.99 5783.41Z" fill="#2C2B27"/>
<path d="M2954.68 5689.62C2941.61 5755.29 2934.7 5902.68 3025.27 5951.32C3081.83 5904.73 3050.75 5735.21 2954.68 5689.62Z" fill="#2C2B27"/>
<path d="M3340.17 5625.96C3296.45 5681.46 3182.97 5788.11 3081.81 5749.21C3080.37 5672.1 3237.68 5580.58 3340.17 5625.96Z" fill="#2C2B27"/>
<path d="M3069.91 5462.27C3040.76 5526.57 2998.35 5676.24 3079.68 5747.76C3148.9 5713.4 3157.61 5531.96 3069.91 5462.27Z" fill="#2C2B27"/>
<path d="M3585.11 6859.93C3655.9 6911.81 3793.35 7048.18 3750 7175.79C3654.6 7181.06 3533.8 6989.48 3585.11 6859.93Z" fill="#2C2B27"/>
<path d="M3395.61 7202.55C3476.62 7235.92 3663.94 7281.91 3748.62 7177.5C3702.79 7092.93 3477.73 7090.3 3395.61 7202.55Z" fill="#2C2B27"/>
<path d="M3827.06 6928.81C3902.89 6979.32 4048.43 7116.76 3994.37 7261.9C3888.57 7276.89 3764.1 7076.87 3827.06 6928.81Z" fill="#2C2B27"/>
<path d="M3639.57 7342.34C3724.83 7368.32 3919.17 7392.17 3995.77 7257.29C3941.64 7166.16 3712.87 7198.73 3639.57 7342.34Z" fill="#2C2B27"/>
<path d="M2372.9 7873.32L2579.49 7844.86L2627.03 7906.95L2399.92 8080.78L2353.98 8020.75L2498.43 7910.19L2291.62 7939.29L2243.75 7876.75L2470.85 7702.92L2516.91 7763.09L2372.9 7873.32Z" fill="#94918A"/>
<path d="M2635.29 8193.01L2826.72 8099.86L2871.04 8140.78L2595.09 8275.26L2556.38 8239.51L2670.35 7955.5L2714.54 7996.29L2635.29 8193.01ZM2701.27 7984.04L2507.26 8194.17L2451.59 8142.77L2645.59 7932.64L2701.27 7984.04ZM2647.21 8323.38L2841.22 8113.25L2896.21 8164.02L2702.21 8374.15L2647.21 8323.38Z" fill="#94918A"/>
<path d="M2801.47 8445.78C2791.41 8438.72 2785.27 8429.1 2783.05 8416.93C2781 8404.72 2783.5 8393.59 2790.56 8383.53C2797.55 8373.57 2807.1 8367.53 2819.2 8365.41C2831.41 8363.36 2842.54 8365.87 2852.6 8372.93C2862.35 8379.77 2868.39 8389.32 2870.71 8401.57C2873.04 8413.81 2870.7 8424.91 2863.72 8434.87C2859.01 8441.58 2852.97 8446.51 2845.59 8449.67C2838.39 8452.81 2830.87 8454.13 2823.03 8453.63C2815.26 8453.03 2808.07 8450.41 2801.47 8445.78Z" fill="#94918A"/>
<path d="M2906.15 8514.48L3086.12 8178.3L3220.72 8250.36C3245.45 8263.6 3264.12 8278.31 3276.72 8294.49C3289.32 8310.66 3296.29 8327.49 3297.64 8344.97C3299.04 8362.33 3295.23 8379.44 3286.21 8396.29C3279.18 8409.43 3270.37 8419.57 3259.79 8426.71C3249.26 8433.75 3237.7 8437.98 3225.11 8439.41C3212.69 8440.78 3199.92 8439.65 3186.81 8436.01L3185.05 8439.29C3197.56 8446.69 3207.61 8456.72 3215.2 8469.37C3222.9 8482.08 3227.03 8496.33 3227.59 8512.11C3228.2 8527.79 3224.09 8543.89 3215.24 8560.42C3205.7 8578.26 3192.74 8591.81 3176.38 8601.07C3160.18 8610.28 3141.33 8614.34 3119.81 8613.24C3098.29 8612.14 3074.95 8604.85 3049.78 8591.38L2906.15 8514.48ZM3008.33 8494.42L3066.28 8525.44C3086.09 8536.05 3102.55 8540.01 3115.68 8537.32C3128.86 8534.52 3138.85 8526.77 3145.65 8514.08C3150.63 8504.78 3152.78 8495.37 3152.1 8485.85C3151.42 8476.34 3148.01 8467.33 3141.86 8458.83C3135.82 8450.39 3127.11 8443.12 3115.72 8437.02L3056.14 8405.13L3008.33 8494.42ZM3081.88 8357.03L3134.58 8385.24C3144.32 8390.45 3153.87 8393.38 3163.24 8394.03C3172.77 8394.63 3181.43 8392.93 3189.2 8388.93C3197.09 8384.98 3203.4 8378.58 3208.15 8369.71C3214.65 8357.56 3215.57 8345.46 3210.91 8333.39C3206.36 8321.38 3196.2 8311.15 3180.44 8302.72L3126.44 8273.8L3081.88 8357.03Z" fill="#94918A"/>
<path d="M3267.95 8695.63C3256.5 8691.17 3248.24 8683.3 3243.18 8672.01C3238.28 8660.64 3238.05 8649.23 3242.51 8637.78C3246.92 8626.44 3254.75 8618.3 3266 8613.36C3277.36 8608.45 3288.77 8608.23 3300.22 8612.69C3311.33 8617.01 3319.47 8624.84 3324.65 8636.18C3329.83 8647.51 3330.21 8658.85 3325.8 8670.19C3322.83 8677.82 3318.14 8684.06 3311.73 8688.89C3305.48 8693.65 3298.49 8696.72 3290.76 8698.11C3283.07 8699.38 3275.47 8698.56 3267.95 8695.63Z" fill="#94918A"/>
<path d="M3728.42 8432.69L3711.3 8496.92L3544.7 8452.52L3463.62 8756.75L3385.72 8735.99L3483.92 8367.53L3728.42 8432.69Z" fill="#94918A"/>
<path d="M3737.65 8820.93C3725.5 8819.09 3715.71 8813.22 3708.3 8803.31C3701.02 8793.3 3698.3 8782.22 3700.14 8770.07C3701.95 8758.04 3707.81 8748.38 3717.69 8741.09C3727.71 8733.81 3738.79 8731.09 3750.94 8732.93C3762.72 8734.7 3772.38 8740.56 3779.92 8750.48C3787.46 8760.41 3790.32 8771.39 3788.51 8783.41C3787.28 8791.52 3784.08 8798.63 3778.88 8804.75C3773.83 8810.76 3767.69 8815.3 3760.45 8818.34C3753.23 8821.27 3745.63 8822.13 3737.65 8820.93Z" fill="#94918A"/>
<path d="M4059.16 8843L3972.84 8846.53L4088.79 8460.15L4192.6 8455.9L4339.52 8831.54L4253.19 8835.07L4145.74 8545.03L4142.76 8545.15L4059.16 8843ZM4047.64 8693.46L4251.54 8685.12L4254.11 8748L4050.21 8756.34L4047.64 8693.46Z" fill="#94918A"/>
<path d="M4527.42 8797.78C4498.76 8803.81 4472.82 8802.93 4449.61 8795.13C4426.5 8787.18 4407.13 8773.5 4391.5 8754.08C4375.99 8734.64 4365.26 8710.77 4359.3 8682.47C4353.27 8653.8 4353.5 8627.5 4360.01 8603.55C4366.61 8579.45 4378.89 8559.17 4396.86 8542.7C4414.81 8526.12 4437.93 8514.84 4466.23 8508.88C4490.65 8503.75 4512.96 8503.68 4533.17 8508.69C4553.37 8513.69 4570.51 8523.09 4584.57 8536.87C4598.64 8550.65 4608.49 8568.24 4614.14 8589.63L4540.89 8605.05C4535.89 8591.52 4528.06 8581.43 4517.4 8574.79C4506.84 8568.01 4494.45 8566.12 4480.24 8569.11C4468.21 8571.64 4458.4 8577.13 4450.79 8585.58C4443.28 8593.88 4438.34 8604.76 4435.96 8618.19C4433.59 8631.63 4434.26 8647.16 4437.97 8664.77C4441.73 8682.63 4447.35 8697.3 4454.84 8708.79C4462.46 8720.25 4471.45 8728.31 4481.82 8732.98C4492.19 8737.65 4503.38 8738.72 4515.41 8736.18C4524.28 8734.32 4531.85 8730.82 4538.13 8725.69C4544.53 8720.54 4549.3 8714.02 4552.46 8706.12C4555.72 8698.08 4557.04 8688.99 4556.42 8678.84L4629.67 8663.42C4632.95 8685.06 4631.09 8705.11 4624.07 8723.59C4617.14 8741.92 4605.53 8757.55 4589.23 8770.5C4572.92 8783.44 4552.32 8792.54 4527.42 8797.78Z" fill="#94918A"/>
<path d="M4792.52 8723.69C4775.4 8730 4759.04 8732.66 4743.46 8731.66C4727.83 8730.55 4713.95 8725.55 4701.81 8716.67C4689.74 8707.62 4680.44 8694.25 4673.91 8676.55C4668.41 8661.64 4666.53 8648.11 4668.26 8635.96C4670 8623.81 4674.44 8612.91 4681.6 8603.26C4688.76 8593.61 4697.75 8585 4708.59 8577.43C4719.54 8569.81 4731.42 8562.92 4744.22 8556.74C4759.22 8549.35 4771.24 8543.2 4780.27 8538.28C4789.27 8533.24 4795.38 8528.47 4798.61 8523.97C4801.85 8519.47 4802.41 8514.36 4800.31 8508.66L4799.92 8507.61C4795.84 8496.55 4789.19 8489.28 4779.97 8485.8C4770.86 8482.28 4759.96 8482.86 4747.27 8487.54C4733.88 8492.48 4724.32 8499.38 4718.59 8508.24C4712.82 8516.99 4710.28 8526.26 4710.99 8536.05L4640.1 8555.86C4637.58 8538.26 4639.25 8521.64 4645.12 8505.98C4650.94 8490.2 4660.76 8476.13 4674.59 8463.75C4688.48 8451.21 4706.15 8440.99 4727.57 8433.09C4742.48 8427.59 4757.39 8424.07 4772.31 8422.54C4787.34 8420.96 4801.5 8421.89 4814.81 8425.31C4828.23 8428.7 4840.15 8435.01 4850.58 8444.27C4860.96 8453.4 4869.09 8465.95 4874.98 8481.9L4941.75 8662.87L4871.18 8688.91L4857.45 8651.7L4855.35 8652.48C4854.14 8662.45 4851.1 8671.97 4846.24 8681.04C4841.34 8689.99 4834.49 8698.14 4825.69 8705.49C4816.85 8712.72 4805.79 8718.79 4792.52 8723.69ZM4794.88 8664.47C4805.83 8660.43 4814.7 8654.71 4821.49 8647.31C4828.24 8639.79 4832.63 8631.42 4834.66 8622.21C4836.68 8612.99 4835.96 8603.67 4832.47 8594.23L4821.97 8565.76C4820.2 8568.13 4817.51 8570.71 4813.91 8573.5C4810.38 8576.12 4806.3 8578.88 4801.68 8581.78C4797.02 8584.56 4792.33 8587.28 4787.63 8589.94C4782.88 8592.49 4778.57 8594.8 4774.71 8596.89C4766.45 8601.39 4759.57 8606.25 4754.08 8611.45C4748.59 8616.65 4744.92 8622.3 4743.07 8628.41C4741.18 8634.4 4741.53 8640.89 4744.1 8647.87C4747.84 8658.01 4754.37 8664.4 4763.68 8667.05C4773.07 8669.54 4783.47 8668.68 4794.88 8664.47Z" fill="#94918A"/>
<path d="M5012.05 8631.16L4874.73 8380.3L5094.08 8260.23L5231.4 8511.1L5164.93 8547.48L5057.56 8351.33L4970.34 8399.07L5077.71 8595.22L5012.05 8631.16Z" fill="#94918A"/>
<path d="M5403.88 8394.36C5380.89 8411.91 5357.29 8422.21 5333.06 8425.25C5308.85 8428.12 5285.51 8424.24 5263.02 8413.61C5240.46 8402.88 5220.29 8385.88 5202.51 8362.6C5184.58 8339.12 5173.44 8315.13 5169.11 8290.64C5164.7 8266.05 5167.1 8242.51 5176.32 8220.01C5185.55 8197.33 5201.66 8177.22 5224.65 8159.67C5247.64 8142.11 5271.23 8131.9 5295.44 8129.04C5319.67 8126 5343.06 8129.84 5365.62 8140.57C5388.11 8151.2 5408.32 8168.25 5426.25 8191.73C5444.03 8215.01 5455.12 8238.95 5459.53 8263.54C5463.87 8288.03 5461.42 8311.61 5452.18 8334.28C5442.97 8356.78 5426.87 8376.81 5403.88 8394.36ZM5366.88 8345.3C5377.34 8337.32 5383.81 8327.69 5386.29 8316.42C5388.7 8305.05 5387.73 8292.83 5383.37 8279.76C5379.11 8266.62 5371.93 8253.44 5361.84 8240.22C5351.74 8227 5340.91 8216.6 5329.35 8209.03C5317.89 8201.38 5306.36 8197.23 5294.76 8196.56C5283.16 8195.89 5272.13 8199.55 5261.67 8207.53C5251.12 8215.6 5244.54 8225.38 5241.93 8236.9C5239.42 8248.34 5240.3 8260.64 5244.56 8273.78C5248.92 8286.85 5256.15 8300 5266.24 8313.22C5276.34 8326.44 5287.12 8336.87 5298.58 8344.52C5310.14 8352.09 5321.77 8356.17 5333.47 8356.76C5345.19 8357.18 5356.33 8353.36 5366.88 8345.3Z" fill="#94918A"/>
<path d="M5561.33 8258.9L5355.97 8059.85L5440.85 7972.28C5465.39 7946.96 5489.6 7931.62 5513.48 7926.24C5537.36 7920.87 5558.17 7926.78 5575.9 7943.97C5587.05 7954.77 5592.3 7967.9 5591.66 7983.36C5591.02 7998.82 5584.87 8015.15 5573.2 8032.36C5586.01 8020.93 5598.97 8013.18 5612.08 8009.11C5625.18 8004.87 5637.63 8004.06 5649.44 8006.68C5661.33 8009.22 5671.77 8014.85 5680.77 8023.58C5692.45 8034.89 5699.45 8047.73 5701.78 8062.09C5704.2 8076.36 5701.85 8091.63 5694.73 8107.89C5687.7 8124.07 5675.89 8140.71 5659.3 8157.82L5561.33 8258.9ZM5570.13 8164.48L5616.65 8116.48C5624.34 8108.55 5628.47 8100.54 5629.05 8092.46C5629.62 8084.2 5626.61 8076.87 5620.01 8070.48C5612.7 8063.39 5604.75 8060.09 5596.16 8060.58C5587.65 8060.97 5579.55 8065.14 5571.86 8073.07L5525.34 8121.07L5570.13 8164.48ZM5491.91 8088.67L5526.51 8052.97C5532.04 8047.27 5535.95 8041.63 5538.23 8036.07C5540.51 8030.33 5541.13 8024.88 5540.09 8019.71C5539.13 8014.46 5536.51 8009.76 5532.23 8005.61C5525.9 7999.48 5518.49 7997.23 5510 7998.85C5501.51 8000.47 5492.99 8005.7 5484.44 8014.52L5451 8049.02L5491.91 8088.67Z" fill="#94918A"/>
<path d="M5830.3 7964.18C5819.63 7978.98 5807.55 7990.31 5794.06 7998.18C5780.47 8005.98 5766.16 8009.59 5751.13 8009C5736.07 8008.23 5720.89 8002.33 5705.59 7991.29C5692.7 7982 5683.59 7971.82 5678.24 7960.77C5672.9 7949.72 5670.5 7938.2 5671.05 7926.19C5671.6 7914.19 5674.25 7902.02 5679.01 7889.69C5683.85 7877.26 5689.85 7864.91 5697.03 7852.64C5705.35 7838.13 5711.88 7826.32 5716.63 7817.19C5721.28 7807.99 5723.69 7800.62 5723.86 7795.08C5724.03 7789.54 5721.65 7784.99 5716.71 7781.43L5715.81 7780.78C5706.24 7773.88 5696.67 7771.56 5687.07 7773.83C5677.56 7775.99 5668.84 7782.56 5660.92 7793.53C5652.57 7805.1 5648.49 7816.17 5648.69 7826.72C5648.78 7837.19 5651.85 7846.3 5657.91 7854.03L5610.15 7910.04C5598.24 7896.85 5590.34 7882.12 5586.47 7865.86C5582.49 7849.52 5582.78 7832.36 5587.34 7814.37C5591.87 7796.21 5600.82 7777.87 5614.18 7759.35C5623.48 7746.46 5633.88 7735.22 5645.4 7725.62C5656.99 7715.92 5669.26 7708.78 5682.21 7704.19C5695.23 7699.51 5708.65 7698.09 5722.47 7699.95C5736.18 7701.73 5749.94 7707.6 5763.73 7717.55L5920.16 7830.41L5876.15 7891.41L5843.98 7868.21L5842.68 7870.02C5847.24 7878.97 5850.03 7888.57 5851.07 7898.8C5852 7908.96 5850.87 7919.55 5847.67 7930.56C5844.37 7941.5 5838.58 7952.7 5830.3 7964.18ZM5799.2 7913.73C5806.03 7904.27 5810.19 7894.57 5811.7 7884.63C5813.1 7874.62 5812.07 7865.23 5808.61 7856.46C5805.14 7847.68 5799.33 7840.35 5791.18 7834.47L5766.57 7816.71C5766.42 7819.67 5765.63 7823.31 5764.2 7827.63C5762.74 7831.78 5760.9 7836.35 5758.68 7841.33C5756.36 7846.24 5753.99 7851.11 5751.58 7855.95C5749.06 7860.71 5746.78 7865.04 5744.74 7868.92C5740.4 7877.27 5737.4 7885.14 5735.75 7892.52C5734.1 7899.9 5734.21 7906.64 5736.09 7912.74C5737.87 7918.76 5741.77 7923.95 5747.81 7928.31C5756.57 7934.63 5765.55 7936.29 5774.76 7933.29C5783.94 7930.11 5792.08 7923.59 5799.2 7913.73Z" fill="#94918A"/>
</svg>
